<svg id="Layer_1" data-name="Layer 1" xmlns="http://www.w3.org/2000/svg" viewBox="0 0 190.44 206.51"><defs><style>.cls-1{fill:#39b54a;}.cls-2{fill:#f90;}.cls-3{fill:#09f;}.cls-4{fill:#c6c;}</style></defs><title>olkkarikekkerilogo</title><path class="cls-1" d="M98.85,56.33a23.28,23.28,0,0,1-2.06,10,23,23,0,0,1-5.48,7.5,24.31,24.31,0,0,1-8,4.75,27,27,0,0,1-9.47,1.68,23.24,23.24,0,0,1-16.41-6.68,23.53,23.53,0,0,1-5-7.41,23,23,0,0,1-1.87-9.35A29,29,0,0,1,52.22,47a24.28,24.28,0,0,1,4.72-8,22,22,0,0,1,7.57-5.45,24.92,24.92,0,0,1,10.2-2A24.61,24.61,0,0,1,85,33.55a22.67,22.67,0,0,1,7.57,5.51,23.8,23.8,0,0,1,4.66,8A28,28,0,0,1,98.85,56.33ZM74.9,68.3a8.65,8.65,0,0,0,3.81-.82,8.16,8.16,0,0,0,2.91-2.35,11.12,11.12,0,0,0,1.87-3.61,15.26,15.26,0,0,0,.66-4.62,11.81,11.81,0,0,0-.6-3.68,10.35,10.35,0,0,0-1.77-3.29,8.66,8.66,0,0,0-6.94-3.23,10.51,10.51,0,0,0-4.15.79,9,9,0,0,0-3.2,2.28,10.79,10.79,0,0,0-2.06,3.52,13.36,13.36,0,0,0-.73,4.5,12.32,12.32,0,0,0,.61,3.89A9.58,9.58,0,0,0,67.18,65a9.15,9.15,0,0,0,3.19,2.38A10.8,10.8,0,0,0,74.9,68.3Z" transform="translate(-21.56 -31.49)"/><path class="cls-2" d="M104.65,82.72l-2.86-49.23,16-1.26L117.38,69,134,67.7l.44,12.86Z" transform="translate(-21.56 -31.49)"/><path class="cls-3" d="M169.68,81.54,153.65,65l-1.77,16.85-10.33-2.28L140.09,33.2l15.65.38L154,52.4l12.92-18,14.51.76L164.55,56.9,181,73.12Z" transform="translate(-21.56 -31.49)"/><path class="cls-4" d="M66.89,132l-16-16.54-1.77,16.85L38.76,130,37.31,83.64,53,84l-1.77,18.81,12.92-18,14.51.76L61.76,107.33l16.41,16.22Z" transform="translate(-21.56 -31.49)"/><path class="cls-2" d="M106.64,123.06,102.53,114l-10,2.13-.11,8.52L80.7,127.35l3.75-41,13.19-3.44,21,37.54ZM93.51,95.89l-.8,12.77,6.8-1.2Z" transform="translate(-21.56 -31.49)"/><path class="cls-1" d="M153.62,132.36,146,114.68a25.05,25.05,0,0,1-2.66,1.27c-.93.38-1.78.69-2.54,1l1.46,13.17-13.81,2.16-1.2-48.34a56.23,56.23,0,0,1,6.81-1.14,65.81,65.81,0,0,1,7-.38,47.48,47.48,0,0,1,8.64.76,26.34,26.34,0,0,1,7.35,2.41,13.86,13.86,0,0,1,5.1,4.31,10.78,10.78,0,0,1,1.9,6.46,12.51,12.51,0,0,1-2.31,7.31,24.6,24.6,0,0,1-6.49,6.18l11.78,15.59Zm-14.19-26.55A26.32,26.32,0,0,0,144,104.7a15.66,15.66,0,0,0,3.67-1.77,9.68,9.68,0,0,0,2.47-2.31,4.62,4.62,0,0,0,.92-2.79,5.08,5.08,0,0,0-.47-2.31,3.76,3.76,0,0,0-1.3-1.46,5.45,5.45,0,0,0-1.9-.76,11.16,11.16,0,0,0-2.28-.22,18.54,18.54,0,0,0-3.74.38,30.9,30.9,0,0,0-3.29.82Z" transform="translate(-21.56 -31.49)"/><path class="cls-4" d="M168.06,132l.94-12.21,5.64.33,1-24.89h-5.37l-.4-11.75,28.72-1.21-.27,13h-6.64l-1.81,26,4.83.27-.87,13.09Z" transform="translate(-21.56 -31.49)"/><path class="cls-1" d="M77.45,183.19l-16.28-16.8-1.81,17.12L48.87,181.2l-1.48-47.13,15.9.38-1.8,19.13,13.13-18.29,14.75.77L72.24,158.15l16.67,16.48Z" transform="translate(-21.56 -31.49)"/><path class="cls-3" d="M94.25,180.81l-3.9-50.17,32.28-3.83.89,11.85-18.85,2.2.69,7,14.73-1.1,1.1,10.9-14.46,1.23,1,7.4,18.51-1.85,1,16.86Z" transform="translate(-21.56 -31.49)"/><path class="cls-2" d="M167.31,182.41l-16-16.54-1.78,16.85-10.32-2.28-1.46-46.37,15.65.38-1.78,18.81,12.93-18L179,136l-16.86,21.73L178.58,174Z" transform="translate(-21.56 -31.49)"/><path class="cls-2" d="M51.15,232.84l-16-16.54-1.77,16.85L23,230.87,21.56,184.5l15.65.38L35.44,203.7l12.92-18,14.51.76L46,208.19l16.41,16.22Z" transform="translate(-21.56 -31.49)"/><path class="cls-3" d="M70.92,237.56l-3.61-46.38,29.84-3.55.82,11-17.42,2,.63,6.46,13.62-1,1,10.07-13.37,1.14,1,6.85,17.11-1.71.88,15.58Z" transform="translate(-21.56 -31.49)"/><path class="cls-4" d="M128.5,233.22l-7.6-17.68a25.05,25.05,0,0,1-2.66,1.27c-.93.38-1.78.7-2.54.95l1.46,13.18-13.81,2.15-1.2-48.34a60.44,60.44,0,0,1,6.81-1.14,65.81,65.81,0,0,1,7-.38,48.58,48.58,0,0,1,8.65.76A26.38,26.38,0,0,1,132,186.4a13.86,13.86,0,0,1,5.1,4.31,10.81,10.81,0,0,1,1.91,6.46,12.58,12.58,0,0,1-2.32,7.32,24.74,24.74,0,0,1-6.49,6.17l11.78,15.59Zm-14.19-26.55a26.09,26.09,0,0,0,4.53-1.11,15.09,15.09,0,0,0,3.67-1.77,9.9,9.9,0,0,0,2.48-2.31,4.68,4.68,0,0,0,.91-2.79,5,5,0,0,0-.47-2.31,3.83,3.83,0,0,0-1.3-1.46,5.45,5.45,0,0,0-1.9-.76,11.16,11.16,0,0,0-2.28-.22,19.3,19.3,0,0,0-3.74.38,31.52,31.52,0,0,0-3.29.82Z" transform="translate(-21.56 -31.49)"/><path class="cls-1" d="M143,230.05l.88-11.53,5.32.32.95-23.51H145l-.38-11.08,27.11-1.14-.25,12.22h-6.27l-1.71,24.58,4.56.26-.83,12.35Z" transform="translate(-21.56 -31.49)"/><path class="cls-2" d="M185.14,233.53l1-34.46-12.17.82L174,183l38,2.28-.32,12-14.06.95,1.27,33.64Z" transform="translate(-21.56 -31.49)"/></svg>